<svg width="640" height="480" xmlns="http://www.w3.org/2000/svg" xmlns:xlink="http://www.w3.org/1999/xlink">
 <title>seagull.svg</title>
 <defs>
  <linearGradient id="linearGradient5603">
   <stop stop-color="#000000" offset="0" id="stop5604"/>
   <stop stop-color="#e56900" offset="1" id="stop5605"/>
  </linearGradient>
  <linearGradient id="linearGradient5598">
   <stop stop-color="#c8c8c8" offset="0" id="stop5599"/>
   <stop stop-color="#ffffff" offset="1" id="stop5600"/>
  </linearGradient>
  <linearGradient id="linearGradient5572">
   <stop stop-color="#000000" offset="0" id="stop5573"/>
   <stop stop-color="#727272" offset="1" id="stop5574"/>
  </linearGradient>
  <linearGradient id="linearGradient4936">
   <stop stop-color="#d36100" offset="0" id="stop4937"/>
   <stop stop-color="#ff7400" offset="1" id="stop4938"/>
  </linearGradient>
  <linearGradient y2="-4.725759" y1="-4.725759" xlink:href="#linearGradient4936" x2="43.775052" x1="42.700161" id="linearGradient4939" gradientTransform="scale(0.574196,1.741565)"/>
  <linearGradient y2="-1.486944" y1="-1.486944" xlink:href="#linearGradient4936" x2="4.9398" x1="4.277833" id="linearGradient4944" gradientTransform="scale(0.798004,1.253127)"/>
  <linearGradient y2="0.816742" y1="0.816742" xlink:href="#linearGradient4936" x2="-0.242735" x1="-0.624522" id="linearGradient4949" gradientTransform="scale(1.069817,0.934739)"/>
  <linearGradient y2="1.047282" y1="1.047282" xlink:href="#linearGradient5572" x2="-0.420642" x1="-0.040486" id="linearGradient5575" gradientTransform="scale(1.370665,0.729573)"/>
  <linearGradient y2="1.065711" y1="1.065711" xlink:href="#linearGradient5572" x2="-0.300989" x1="0.045452" id="linearGradient5580" gradientTransform="scale(1.358318,0.736205)"/>
  <linearGradient y2="1.399378" y1="1.399378" xlink:href="#linearGradient5572" x2="-0.12183" x1="0.177956" id="linearGradient5585" gradientTransform="scale(1.136756,0.879696)"/>
  <linearGradient y2="0.993365" y1="0.993365" xlink:href="#linearGradient5598" x2="0.713458" x1="0.010269" id="linearGradient5601" gradientTransform="scale(1.050353,0.952061)"/>
  <linearGradient y2="2.401973" y1="2.401973" xlink:href="#linearGradient5603" x2="-0.25584" x1="-0.820814" id="linearGradient5606" gradientTransform="scale(1.077498,0.928076)"/>
 </defs>
 <g>
  <title>Layer 1</title>
  <g id="layer1"/>
  <g id="g5607">
   <path fill="#ffffff" fill-rule="evenodd" stroke-width="1.0000000pt" stroke-linecap="round" stroke-linejoin="round" id="path2405" d="m567.073181,82.601013c11.198303,0.384537 20.763611,-0.277405 31.840332,1.560226c1.070618,2.702438 -3.801392,3.111526 -8.436768,3.929474c2.056824,2.929001 -0.859985,4.741486 -3.640686,4.56514c-13.930908,1.857986 -28.512207,1.10405 -42.530701,0.982361c-39.757629,-0.772324 -79.242004,-3.265396 -118.982178,-4.507324c-1.968872,0.622314 -7.229492,0.479584 -8.436768,1.271301c-17.418396,5.309525 -32.804535,15.803085 -47.731598,25.946106c-11.368347,7.804611 -22.143402,17.180847 -33.400604,25.137024c-4.568451,5.834946 6.937561,7.754745 10.57489,5.663116c15.633972,-6.522629 29.808685,-16.247726 42.646423,-27.217392c0.991211,5.058243 0.236267,6.600479 0.057739,9.130219c-2.665649,14.052826 -9.927277,26.017853 -17.682556,37.850143c-5.057434,7.067566 -10.018219,13.005096 -17.509308,17.682602c-2.981781,1.370956 -6.379364,1.776367 -9.59259,2.080307c0.080414,0.495895 0.818298,3.283386 0.917908,3.77652c0.076263,1.03334 2.544678,1.319565 3.242706,1.944305c2.093079,1.738312 3.26825,4.317856 5.177063,6.264679c0.791565,0.822754 0.13913,0.376236 -0.265167,1.594254c-0.527527,1.577881 -0.071625,1.890152 -1.791443,2.427032c-0.753174,0.262955 -2.261719,-0.310745 -3.004883,-0.520081c-0.308258,0.92923 -0.16275,2.502243 -1.097961,2.831604c-2.243988,0.980484 -3.287628,0.871307 -5.605255,0.23114c-1.206207,-0.365128 -2.38501,0.421997 -2.369232,-0.924576c-0.000549,-1.00737 -0.369171,-2.115936 -1.155731,-2.831604c-2.305908,-2.793457 -4.416077,-5.787659 -7.27774,-7.977829c0.382416,-0.552582 -1.075989,-1.819031 -2.256989,-2.539276c-0.1492,-0.183426 -2.406342,-1.410339 -2.484802,-1.618011c-1.189575,0.82283 -3.304321,1.237549 -4.680695,1.618011c-7.423187,6.050201 -13.961853,11.096085 -23.519073,12.828629c-2.105469,-3.250412 1.437439,-4.438293 2.831512,-7.627853c2.948853,-4.107559 -3.447388,-8.428192 -6.125336,-10.401535c-0.245453,1.504669 -0.682129,3.110672 -2.195953,3.698318c-1.031464,0.331863 -0.979034,0.290527 -1.791382,1.271301c-1.529022,-2.35083 -2.139465,-5.176041 -2.542572,-7.916718c-0.015778,-0.133774 0.015686,-0.270523 0,-0.404495c-1.515381,-1.360062 -1.359314,-3.398285 -2.715973,-4.911835c-0.243439,-0.132523 -2.904236,-2.290619 -2.947083,-2.542603c-4.527283,-5.323975 -7.55423,-9.36554 -9.245819,-16.238007c-1.105835,-3.77507 -7.00769,-4.81369 -10.40152,-5.836411c-7.358704,-0.731979 -15.757019,-0.683716 -23.114563,-0.288925c1.269958,0.89415 -2.333618,3.226166 -3.855438,2.794495c-18.140778,2.900635 -34.335876,10.417511 -50.579376,18.759842c-24.538239,12.710754 -46.688232,27.608505 -69.343704,43.339767c-5.133957,3.40625 -9.145584,7.643829 -14.793289,10.170441c-1.954803,1.488007 -4.068512,-0.125 -4.333969,-2.138092c-9.275528,7.465485 -18.591202,15.765106 -29.297775,21.03421c-8.257462,-0.826935 5.315643,-5.777649 7.223358,-8.436798c22.402664,-19.194061 44.767883,-38.568222 67.725616,-57.035172c22.263763,-17.284134 49.177917,-28.384308 77.202667,-31.493591c16.948181,-2.102875 34.076538,-2.002518 51.083191,-0.693436c13.890106,-10.216568 30.631165,-18.633072 48.367249,-16.353577c9.045624,-2.827499 16.101807,-9.948822 23.750153,-15.313354c13.715759,-10.390488 26.44693,-22.157425 40.970581,-31.435837c7.426239,-2.311272 15.568939,-1.032928 23.287872,-1.733582c53.267273,-1.201431 106.556641,-1.871979 159.837219,-1.444656zm-236.115234,104.188873c0,0 -0.247955,5.544144 3.524963,6.298691c3.772919,0.754639 7.529297,2.287704 8.032288,3.293823c0.503082,1.006119 -2.522156,-8.103683 -2.773712,-9.361374l-8.783539,-0.23114z"/>
   <path fill="url(#linearGradient5601)" fill-rule="evenodd" stroke-width="1.0000000pt" id="path5586" d="m342.239044,148.682556c15.019012,-5.109573 45.056915,-25.547775 47.069855,-28.489609c1.548279,8.051392 -7.122437,30.192764 -13.315857,39.173187c-5.109497,8.051453 -17.651215,25.238144 -23.999359,26.786438c-6.348297,1.54834 -17.341492,1.393524 -20.593018,0.774139c-3.251587,-0.619263 -9.599823,4.025726 -13.625488,7.586945c-4.025726,3.561218 -15.173889,9.909439 -19.973755,9.754623c-2.167664,0.464447 3.870911,-9.290115 3.716095,-10.83847c0.464508,-4.799866 -3.716034,-6.038589 -4.799866,-8.051392c6.96756,1.703171 9.909363,1.393539 18.889862,2.012802c7.741699,0.309692 20.12851,-2.941818 26.786438,-17.341431c1.083832,-7.432068 2.322479,-17.651199 -0.154907,-21.367233z"/>
   <path fill="url(#linearGradient5585)" fill-rule="evenodd" stroke-width="1.0000000pt" id="path5581" d="m283.401825,176.088318c16.102844,6.038513 21.831726,-4.954758 26.786407,-9.290115c-9.909424,12.231934 -4.180542,18.889847 2.632202,16.87706c14.244873,-3.561218 27.560638,-32.050827 9.2901,-42.889282c-0.7742,-2.322495 10.838409,1.857971 13.93512,-0.619339c-3.09671,5.419205 -0.774139,8.825607 5.109558,8.670731c4.180542,-1.857986 2.941895,18.889847 0.774231,21.831665c-2.167694,2.941971 -8.361115,16.102921 -22.605957,16.257675c-14.244751,0.154877 -33.599121,-2.47731 -35.921661,-10.838394z"/>
   <path fill="url(#linearGradient5580)" fill-rule="evenodd" stroke-width="1.0000000pt" id="path5576" d="m238.499725,153.172729c0,0 -14.554474,0 -21.676849,1.858047c-7.122437,1.858047 -49.856842,14.244797 -59.766266,19.509186c-9.909454,5.264374 -46.450439,31.895996 -56.979202,41.805374c-10.528778,9.909515 -31.896011,26.012299 -32.824966,28.179962c-0.929092,2.167694 2.47731,1.858063 4.335358,0.309631c1.858047,-1.548279 26.012222,-20.12851 26.012222,-20.12851c0,0 -1.548355,4.025726 0,4.025726c1.548355,0 39.637711,-23.844604 43.973129,-26.941238c6.812744,-7.122375 43.044098,-26.941254 45.831085,-28.179901c2.787018,-1.238724 40.257019,-18.580231 44.9021,-18.270599c4.64505,0.309692 6.19339,-2.167679 6.19339,-2.167679z"/>
   <path fill="url(#linearGradient5575)" fill-rule="evenodd" stroke-width="1.0000000pt" id="path4950" d="m421.204834,89.380798c0,0 -27.560608,-1.548355 -29.109009,-0.929001c-1.548279,0.61937 -64.720886,44.902115 -66.578949,45.83107c-1.857971,0.929031 -6.503021,5.883774 -2.477295,5.883774c4.025726,0 8.051392,2.787018 13.315765,0c5.264374,-2.787064 50.476074,-36.231354 56.050232,-38.08934c5.574036,-1.858047 25.08313,-12.696503 28.799255,-12.696503z"/>
   <path fill="#000000" fill-rule="evenodd" stroke-width="1.0000000pt" stroke-linecap="round" stroke-linejoin="round" id="path1091" d="m425.612122,87.859558c3.456909,3.315384 -5.410522,2.439148 -7.385498,3.734268c-17.418396,5.309525 -32.757202,15.596664 -47.684387,25.739685c-11.368317,7.804611 -22.143951,16.426773 -33.401154,24.38295c-4.568451,5.834946 4.650482,6.686462 8.287903,4.594833c15.633942,-6.522552 29.799774,-16.239807 42.637482,-27.209473c4.261169,-2.236099 2.479553,6.160278 2.301025,8.690094c-2.665649,14.052826 -9.90741,26.75296 -17.66272,38.585114c-5.057251,7.067627 -10.230377,14.535324 -17.721497,19.212814c-6.683044,3.072815 -14.229919,2.881393 -21.374725,2.044327c-4.793488,-0.652878 -7.487427,3.910858 -11.607452,5.049911c-7.423187,6.050186 -15.794128,11.600174 -25.351379,13.332657c-2.105438,-3.250412 1.963074,-7.507355 3.357178,-10.69693c3.025299,-4.214157 -2.698334,-5.99733 -5.295227,-8.032776c-10.501129,-6.863647 -19.237762,-17.036942 -22.284668,-29.415848c-1.105774,-3.774994 -6.98172,-2.497589 -10.375549,-3.520294c-23.963379,-2.383545 -48.15387,1.784973 -71.055695,8.742325c-19.810364,6.34259 -40.228821,13.422241 -56.269318,26.925049c-2.894653,1.106277 -4.791809,3.532684 -9.123764,5.563248c2.070099,-2.585159 6.738083,-5.996704 9.816849,-8.955399c17.850464,-14.021225 40.319458,-21.637833 61.992645,-27.79895c22.303406,-5.992676 45.765747,-9.550079 68.813568,-6.34996c3.82251,0.642044 9.090454,0.503128 8.679535,5.874405c3.125885,11.758469 11.770782,21.147903 21.837524,27.559113c3.44696,2.019196 8.482849,4.769455 5.736267,9.618011c-1.128632,2.656708 -6.322815,9.576477 -0.350555,6.343079c7.09494,-2.384506 13.201111,-6.792999 18.997925,-11.40062c4.605469,-1.781662 8.448059,-6.483109 14.081512,-5.024292c6.809692,0.844925 14.417542,0.882217 20.356964,-3.005997c9.091064,-7.22438 15.458527,-17.226761 21.329224,-27.096741c5.371765,-9.843399 10.475983,-20.347305 11.32962,-31.693344c0.274475,-3.74437 -4.140228,2.541138 -6.071045,3.220688c-11.545746,8.825729 -23.848236,17.002914 -37.49942,22.183884c-4.25708,1.401733 -12.804993,0.783234 -10.816437,-5.755646c1.003357,-4.289658 5.744049,-5.586365 8.687378,-8.311768c20.506226,-15.197311 40.907959,-31.06012 64.247375,-41.730988c6.001709,-2.581223 12.285522,-4.854431 18.840515,-5.39743z"/>
   <path fill="#000000" fill-rule="evenodd" stroke-width="1.0000000pt" stroke-linecap="round" stroke-linejoin="round" id="path1088" d="m566.20636,81.792c11.198303,0.384537 22.554993,-0.277397 33.631775,1.560234c2.731201,6.894592 -22.736267,5.634857 -27.270691,6.534531c-3.456482,1.42897 -14.533081,-1.054382 -5.898804,-2.145935c5.764771,-0.210587 27.627441,-0.754486 30.106812,-2.597229c-25.943787,-1.70108 -51.987488,-1.007889 -77.974915,-1.144783c-44.337097,0.38752 -88.699951,0.528908 -133.003265,2.358299c-11.638245,6.167191 -21.188538,15.602951 -31.667999,23.48848c-10.68808,8.195236 -20.844788,17.40152 -32.902618,23.556442c-8.25592,0.944168 -17.588806,-0.31601 -25.847046,3.18013c-9.212524,2.907501 -16.986877,9.013535 -25.155151,13.744507c-36.641632,-3.028778 -75.523926,0.045639 -107.871796,19.015778c-22.788849,13.131241 -41.631256,31.72258 -61.891388,48.257919c-10.345337,8.773712 -20.63678,17.610992 -30.871201,26.513611c14.087845,-8.720642 26.43396,-19.970428 39.121368,-30.569c4.698059,2.321533 -7.633133,8.236847 -10.13385,11.615936c-10.202179,7.984375 -19.840607,17.147522 -31.528931,22.89975c-8.257462,-0.826904 5.019211,-8.128326 6.926926,-10.787415c22.402664,-19.194122 44.749969,-38.563293 67.707703,-57.030243c22.263702,-17.284134 49.172852,-28.361038 77.197662,-31.470306c16.94812,-2.102814 34.105713,-2.008774 51.112366,-0.699692c13.890106,-10.216568 30.631165,-18.633072 48.367249,-16.353577c9.045624,-2.827499 16.09375,-9.933823 23.742096,-15.298431c13.715759,-10.390411 26.440826,-22.150604 40.964478,-31.429047c7.426392,-2.311249 15.581055,-1.040436 23.299927,-1.741096c53.267273,-1.201424 106.558716,-1.886177 159.839294,-1.458862z"/>
   <path fill="#000000" fill-rule="evenodd" stroke-width="1.0000000pt" stroke-linecap="round" stroke-linejoin="round" id="path1089" d="m592.152527,87.223907c4.196045,3.278992 -2.88501,6.397781 -5.945129,6.20372c-13.931091,1.858063 -28.041931,1.334579 -42.060486,1.212891c-44.479492,-0.864014 -88.871826,-4.163345 -133.347778,-5.106506c-6.474548,0.097687 -13.109009,-0.453537 -19.454407,1.041534c-21.432709,15.261551 -43.840668,29.137817 -64.925201,44.895203c-2.153809,1.271164 -3.664429,3.076706 -3.088593,5.383087c-3.501282,1.603226 -3.143921,-2.656845 -1.445557,-4.503448c7.811829,-6.847244 16.697021,-12.35257 25.164886,-18.340881c14.544708,-9.940201 29.266846,-19.654694 43.733124,-29.685608c6.790344,-1.604996 13.88208,-0.997162 20.80835,-1.091751c48.934021,1.054871 97.776184,4.99733 146.732666,5.245346c10.067322,-0.169678 20.288086,0.166275 30.188843,-1.936844c3.628906,-0.057617 1.462341,-2.487274 3.639282,-3.316742z"/>
   <path fill="#000000" fill-rule="evenodd" stroke-width="1.0000000pt" stroke-linecap="round" stroke-linejoin="round" id="path1090" d="m240.10144,152.807053c2.47757,0.689468 0.070557,1.470352 -2.118256,2.529526c-18.140839,2.900711 -35.219116,11.176987 -51.462616,19.519333c-24.538177,12.710754 -47.207275,28.60405 -69.862747,44.335403c-5.133942,3.406189 -10.117188,7.156464 -15.764877,9.683075c-2.490509,1.895691 -6.241821,-0.351654 -4.54776,-3.425354c1.118149,-1.992523 3.0242,0.326294 1.964737,1.791382c3.236237,-0.771027 5.986298,-2.838898 8.819,-4.502563c13.129227,-8.595764 25.784958,-17.892609 38.925644,-26.473175c20.879517,-13.704453 42.499908,-26.666077 65.974976,-35.434586c8.88443,-3.233948 18.670227,-6.868851 28.071899,-8.023041z"/>
   <path fill="#000000" fill-rule="evenodd" stroke-width="1.0000000pt" stroke-linecap="round" stroke-linejoin="round" id="path1092" d="m342.323364,168.314529c0.816376,0.192673 -0.858582,3.314514 -1.194733,4.892944c-2.388062,5.154083 -6.036163,9.113968 -11.245483,11.403549c-6.255585,2.852844 -13.114716,3.780487 -19.910767,3.504196c-6.337738,-0.261993 -12.636017,-1.33075 -18.725189,-3.1008c-1.040436,-0.444794 -0.578217,-2.296387 0.556122,-2.170532c1.30777,0.280243 2.580872,0.707123 3.89682,0.956879c8.390747,1.921463 17.154755,2.786163 25.69342,1.351929c5.321014,-0.938751 10.767487,-2.635239 14.580353,-6.568665c2.38208,-2.425705 5.887878,-10.398132 6.349457,-10.269501z"/>
   <path fill="#000000" fill-rule="evenodd" stroke-width="1.0000000pt" stroke-linecap="round" stroke-linejoin="round" id="path1093" d="m313.448639,159.399124c0.990936,-0.048965 -0.041656,1.863266 -0.648956,2.592255c-2.234436,4.63887 -3.650909,8.348038 -7.395599,11.898972c-3.293915,3.081696 -7.471954,5.463028 -12.048248,5.771881c-3.847015,0.302063 -6.768219,-1.163574 -10.058411,-3.115311c-3.006134,-2.467102 -1.237213,-1.850342 -0.179321,-1.754074c0.874756,0.140991 1.562378,0.792618 2.389984,1.084183c3.411194,1.581619 7.417358,2.048141 11.015503,0.821854c4.394043,-1.442291 8.198975,-4.401825 11.028992,-7.954498c2.047089,-2.593094 5.464264,-9.355957 5.896057,-9.345261z"/>
   <path fill="url(#linearGradient4939)" fill-rule="evenodd" stroke-width="1.0000000pt" id="path4314" d="m292.982239,173.465912c0,0 -3.77298,-2.515305 -4.527527,0.251495c-0.754639,2.766861 0.251495,13.079559 2.012238,14.840302c1.760681,1.760742 3.269836,0 3.269836,-1.509171c0,-1.509186 0.251587,-12.073441 -0.754547,-13.582626z"/>
   <path fill="#000000" fill-rule="evenodd" stroke-width="1.0000000pt" stroke-linecap="round" stroke-linejoin="round" id="path1094" d="m290.334076,171.592102c1.246918,-0.076126 2.704498,-0.031265 3.606781,0.964096c0.586823,0.897415 0.39444,2.030502 0.620453,3.035507c0.461639,3.909607 0.968811,7.889008 0.368164,11.811874c-0.237396,1.518494 -0.945892,3.206512 -2.477386,3.801041c-1.031464,0.331863 -1.98349,-0.510834 -2.544312,-1.290802c-1.529053,-2.350769 -2.166992,-5.155624 -2.570038,-7.896301c-0.284912,-2.415085 -0.563477,-4.863495 -0.32428,-7.294479c0.05835,-1.556473 1.40506,-2.772278 2.874298,-3.050659c0.1474,-0.034027 0.296356,-0.060699 0.44632,-0.080276zm0.40451,2.369232c-1.127106,-0.05835 -1.620026,1.253799 -1.493622,2.199066c-0.043823,3.834595 0.44278,7.7285 1.863403,11.307846c0.282471,0.813797 1.613068,0.742264 1.567657,-0.210236c0.591949,-3.72139 0.022644,-7.480621 -0.428406,-11.182556c-0.139252,-0.603485 -0.004913,-1.297195 -0.318176,-1.835327c-0.30072,-0.30658 -0.786774,-0.38208 -1.190857,-0.278793z"/>
   <path fill="#4a0000" fill-rule="evenodd" stroke-width="1.0000000pt" id="path5587" d="m305.698059,153.792114c-2.167664,-0.7742 -7.122437,5.264389 -6.967529,7.277191c3.406311,2.632187 6.812714,-5.109512 6.967529,-7.277191z"/>
   <path fill="#000000" fill-rule="evenodd" stroke-width="1.0000000pt" stroke-linecap="round" stroke-linejoin="round" id="path1095" d="m305.994232,152.464767c0.751007,0.067169 1.242523,0.98938 0.890137,1.654144c-0.852356,2.532516 -1.805145,5.10936 -3.520752,7.198898c-1.032074,1.228378 -2.536682,2.190109 -4.190125,2.141708c-0.632233,0.0457 -1.266785,-0.382004 -1.336792,-1.03801c-0.318939,-2.071548 0.537018,-4.124146 1.697968,-5.798691c1.193512,-1.687332 2.697815,-3.310974 4.704224,-3.993027c0.562714,-0.182938 1.168243,-0.269196 1.755341,-0.165024zm-0.705322,1.514328c-1.967499,0.626892 -4.875214,3.758667 -5.317169,5.693893c-0.066589,0.248856 -0.212738,2.054947 0.188934,1.809845c0.560913,-0.29129 1.869629,-0.829559 2.25705,-1.313385c0.84845,-1.158371 2.362579,-4.866058 2.871185,-6.190353z"/>
   <path fill="#4a0000" fill-rule="evenodd" stroke-width="1.0000000pt" id="path5588" d="m285.724365,161.998322c0,-6.503036 -5.109558,-5.883713 -6.967529,-5.883713c0,2.941895 1.857971,4.335434 6.967529,5.883713z"/>
   <path fill="#000000" fill-rule="evenodd" stroke-width="1.0000000pt" stroke-linecap="round" stroke-linejoin="round" id="path1096" d="m281.088287,155.180725c1.842957,0.297272 3.654205,1.216705 4.730896,2.780899c0.740509,1.065704 1.142517,2.386871 1.033142,3.685959c-0.063141,0.63884 -0.736084,1.090164 -1.353943,0.979446c-2.78653,-0.138977 -5.433716,-1.656082 -7.050354,-3.915924c-0.465057,-0.655853 -0.878601,-1.364578 -1.123138,-2.133026c-0.124481,-0.634949 0.372528,-1.301849 1.019928,-1.356232c0.90152,-0.183365 1.836578,-0.191833 2.743469,-0.041122zm-1.858063,1.786926c0.802277,0.888199 1.889709,3.791748 6.423248,4.158463c-0.078003,-0.314911 -0.958618,-2.107254 -1.157196,-2.35791c-0.388123,-0.399643 -1.46521,-1.574127 -2.028351,-1.680389c-0.35437,-0.060364 -4.590454,-1.27179 -3.237701,-0.120163z"/>
   <path fill="url(#linearGradient4944)" fill-rule="evenodd" stroke-width="1.0000000pt" id="path4940" d="m343.288239,177.490387c0,0 -5.030609,2.263733 -5.282166,3.269867c-0.251495,1.006119 4.276062,12.324997 5.785156,14.840302c1.509247,2.515289 5.282166,8.552017 7.294403,7.294327c2.012238,-1.257614 3.772919,-2.7668 3.018372,-4.024475c-0.754578,-1.257614 -8.048981,-5.5336 -8.552032,-7.294342c-0.503052,-1.760742 -2.263733,-12.828064 -2.263733,-14.085678z"/>
   <path fill="url(#linearGradient4949)" fill-rule="evenodd" stroke-width="1.0000000pt" id="path4945" d="m329.957123,185.790848c0,0 -6.288208,1.25769 -4.024475,3.77298c2.263794,2.515305 11.067322,6.288223 11.82193,8.552017c0.754639,2.263809 0.251495,6.791275 3.269867,7.042847c3.018341,0.251556 6.539856,1.006119 7.294403,-0.754562c0.754547,-1.760803 -6.539856,-9.306641 -7.545898,-9.306641c-1.006195,0 -5.533661,-1.006119 -6.539795,-2.263809c-1.006104,-1.257614 -3.018341,-6.539703 -4.276031,-7.042831z"/>
   <path fill="url(#linearGradient5606)" fill-rule="evenodd" stroke-width="1.0000000pt" id="path5602" d="m353.696838,199.468414c0,0 -5.728882,-5.109573 -6.967529,-6.812805c-1.238739,-1.703171 -2.477448,-1.548294 -3.406342,-0.774139c-0.929016,0.774139 2.012787,6.193405 -0.464569,4.490234c-2.477325,-1.703171 -4.799896,-2.941895 -5.728851,-1.548416c-0.929016,1.393539 0.928955,2.941879 1.238678,5.109634c1.238647,2.012802 0.929016,4.490173 1.858032,5.264389c4.180481,0.464432 8.361023,0.619247 8.670715,-1.083908c0.309631,-1.703171 4.025726,-0.464523 4.799866,-4.644989z"/>
   <path fill="#000000" fill-rule="evenodd" stroke-width="1.0000000pt" stroke-linecap="round" stroke-linejoin="round" id="path1098" d="m343.670929,175.983856c1.007599,0.247803 0.904083,1.467712 0.944458,2.273102c0.281158,3.710892 0.444641,7.451797 1.183228,11.10733c0.076263,1.03334 1.009735,1.567032 1.707733,2.191849c2.093109,1.738312 4.314178,3.341736 6.223022,5.288559c0.791504,0.822754 1.666199,1.922363 1.261963,3.140457c-0.527435,1.577728 -1.349915,3.356323 -3.069672,3.89328c-1.622253,0.566193 -3.402435,-0.157593 -4.559418,-1.33284c-1.795471,-1.654343 -3.233032,-3.665878 -4.493774,-5.745773c-1.097046,-2.005569 -1.801941,-4.192841 -2.683594,-6.295776c-1.160736,-3.009201 -2.275604,-6.04715 -3.112061,-9.163162c-0.408051,-0.998337 0.36554,-1.802475 1.080505,-2.375961c1.482361,-1.434036 3.273682,-2.815765 5.397736,-2.998856c0.040009,0.005905 0.079956,0.01181 0.119873,0.017792zm-1.329071,3.062668c-1.043091,0.547516 -2.039063,1.202393 -2.889313,2.022522c0.894836,3.546066 1.363251,7.09285 2.666077,10.502502c0.734497,1.818253 2.310059,3.539001 3.43454,5.164658c1.067505,1.59523 2.22464,3.178665 3.715393,4.404114c0.743439,0.67337 2.156158,0.992783 2.692474,-0.09668c0.372833,-0.755798 1.18692,-1.760254 0.265594,-2.462173c-2.389374,-2.416458 -5.230621,-4.323746 -7.757599,-6.585342c-0.981445,-1.137589 -1.032562,-2.72435 -1.320953,-4.131989c-0.387543,-2.78833 -0.562927,-5.601517 -0.782806,-8.406586c-0.008209,-0.136963 -0.016052,-0.273987 -0.023407,-0.411026z"/>
   <path fill="#000000" fill-rule="evenodd" stroke-width="1.0000000pt" stroke-linecap="round" stroke-linejoin="round" id="path1099" d="m330.380096,184.536224c0.90097,0.292053 1.023895,1.342621 1.272888,2.119614c0.971741,2.257278 2.23999,4.558029 4.378296,5.902252c0.931244,0.595154 2.024109,0.937714 3.134125,0.895126c0.855682,0.01181 1.74234,0.187119 2.414307,0.752411c1.440002,1.0298 2.664642,2.322144 4.051636,3.418549c1.406128,1.211502 2.931488,2.353607 3.974335,3.913361c0.875824,1.624329 -0.070007,3.841324 -1.78775,4.446198c-2.24408,0.980499 -4.821747,0.855057 -7.139374,0.214905c-1.206238,-0.365067 -2.353546,-1.384857 -2.337769,-2.731445c-0.000488,-1.00737 -0.154144,-2.116287 -0.940643,-2.83194c-2.305878,-2.793472 -5.183594,-5.033875 -8.045258,-7.224121c-1.12677,-0.804016 -2.315552,-1.514954 -3.496582,-2.235184c-0.812256,-0.999176 -0.490265,-2.431747 0.029816,-3.487885c0.848663,-1.644547 2.503967,-2.972382 4.379303,-3.150177l0.112671,-0.001663zm-0.751221,2.773727c-0.877991,0.247955 -1.675812,1.013077 -1.79422,1.938766c-0.039948,0.691284 0.664612,0.970413 1.151764,1.270874c3.678741,2.28479 6.947632,5.172913 9.947235,8.281982c1.034729,1.17691 1.853668,2.709152 1.682739,4.321396c0.075226,0.780945 0.977722,1.009598 1.631622,1.063416c1.638214,0.256775 3.480438,0.416809 4.936432,-0.538757c0.627228,-0.355118 0.394989,-1.278793 -0.082306,-1.665237c-2.180878,-1.976685 -4.414001,-3.897247 -6.680847,-5.775162c-1.063629,-0.722183 -2.434235,-0.206207 -3.570526,-0.713425c-2.404114,-0.724838 -4.348206,-2.526566 -5.62561,-4.646942c-0.676575,-1.106613 -1.199982,-2.303116 -1.596283,-3.536911z"/>
  </g>
 </g>
</svg>
